<svg width="374" height="615" viewBox="0 0 374 615" fill="none" xmlns="http://www.w3.org/2000/svg">
<path d="M69 518C93.8528 518 114 538.147 114 563C114 587.853 93.8528 608 69 608C44.1472 608 24 587.853 24 563C24 538.147 44.1472 518 69 518ZM321 518C345.853 518 366 538.147 366 563C366 587.853 345.853 608 321 608C296.147 608 276 587.853 276 563C276 538.147 296.147 518 321 518ZM69.5 539C56.5213 539 46 549.521 46 562.5C46 575.479 56.5213 586 69.5 586C82.4787 586 93 575.479 93 562.5C93 549.521 82.4787 539 69.5 539ZM320.5 538C307.521 538 297 548.521 297 561.5C297 574.479 307.521 585 320.5 585C333.479 585 344 574.479 344 561.5C344 548.521 333.479 538 320.5 538ZM278 382C296.778 382 312 397.222 312 416C312 434.778 296.778 450 278 450C259.222 450 244 434.778 244 416C244 397.222 259.222 382 278 382ZM278.286 396.286C267.556 396.286 258.858 404.984 258.857 415.714C258.857 426.444 267.556 435.143 278.286 435.143C289.016 435.142 297.714 426.444 297.714 415.714C297.714 404.984 289.016 396.286 278.286 396.286ZM174.5 278C207.361 278 234 304.639 234 337.5C234 370.361 207.361 397 174.5 397C141.639 397 115 370.361 115 337.5C115 304.639 141.639 278 174.5 278ZM175 295C151.804 295 133 313.804 133 337C133 360.196 151.804 379 175 379C198.196 379 217 360.196 217 337C217 313.804 198.196 295 175 295ZM41.5 283C58.897 283 73 297.103 73 314.5C73 331.897 58.897 346 41.5 346C24.103 346 10 331.897 10 314.5C10 297.103 24.103 283 41.5 283ZM41.7646 296.235C31.8236 296.235 23.7646 304.294 23.7646 314.235C23.7647 324.176 31.8236 332.235 41.7646 332.235C51.7058 332.235 59.7646 324.176 59.7646 314.235C59.7646 304.294 51.7058 296.235 41.7646 296.235ZM305.5 265C322.897 265 337 279.103 337 296.5C337 313.897 322.897 328 305.5 328C288.103 328 274 313.897 274 296.5C274 279.103 288.103 265 305.5 265ZM305.765 278.235C295.824 278.235 287.765 286.294 287.765 296.235C287.765 306.176 295.824 314.235 305.765 314.235C315.706 314.235 323.765 306.176 323.765 296.235C323.765 286.294 315.706 278.235 305.765 278.235ZM73.5 191C85.9264 191 96 201.074 96 213.5C96 225.926 85.9264 236 73.5 236C61.0736 236 51 225.926 51 213.5C51 201.074 61.0736 191 73.5 191ZM73.6895 200.454C66.5888 200.454 60.8322 206.21 60.832 213.311C60.832 220.411 66.5886 226.168 73.6895 226.168C80.7901 226.168 86.5459 220.411 86.5459 213.311C86.5457 206.21 80.79 200.454 73.6895 200.454ZM175 124C202.062 124 224 145.938 224 173C224 200.062 202.062 222 175 222C147.938 222 126 200.062 126 173C126 145.938 147.938 124 175 124ZM174.51 148.99C160.979 148.99 150.01 159.959 150.01 173.49C150.01 187.021 160.979 197.99 174.51 197.99C188.041 197.99 199.01 187.021 199.01 173.49C199.01 159.959 188.041 148.99 174.51 148.99ZM174.5 7C202.39 7 225 29.6096 225 57.5C225 85.3904 202.39 108 174.5 108C146.61 108 124 85.3904 124 57.5C124 29.6096 146.61 7 174.5 7ZM175 20C154.565 20 138 36.5655 138 57C138 77.4345 154.565 94 175 94C195.435 94 212 77.4345 212 57C212 36.5655 195.435 20 175 20Z" fill="#137AA3"/>
<path d="M126.108 405.552C133.135 410.558 140.969 414.503 149.379 417.152L88.0664 544.355L64.6455 533.065L126.108 405.552ZM302.636 443.442L321.636 521.941L324.693 534.577L299.424 540.693L296.365 528.059L277.365 449.558L274.308 436.924L299.577 430.807L302.636 443.442ZM230.224 358.432L260.224 382.931L270.292 391.154L253.846 411.292L243.777 403.069L213.777 378.568L203.709 370.346L220.154 350.208L230.224 358.432ZM166.355 381.935L160.114 394.882C151.492 392.648 143.621 388.548 136.962 383.034L142.935 370.645L166.355 381.935ZM81.2754 229.948L77.4141 242.361L63.4131 287.362L59.5518 299.774L34.7256 292.051L38.5869 279.638L52.5879 234.638L56.4492 222.225L81.2754 229.948ZM303.375 273.608L284.393 291.375L223.449 226.257C229.971 220.32 235.397 213.203 239.392 205.242L303.375 273.608ZM188.001 290H162.001V211H188.001V290ZM142.07 195.828L90.1729 218.069L79.9307 194.172L131.828 171.931L142.07 195.828ZM222.052 186.715C219.466 195.6 214.432 203.439 207.729 209.46L193.626 194.392L212.608 176.625L222.052 186.715ZM188.001 144H162.001V96H188.001V144Z" fill="#137AA3"/>
<circle cx="175" cy="57" r="23" fill="#E40035"/>
<circle cx="42" cy="314" r="9" fill="#E40035"/>
<circle cx="306" cy="296" r="9" fill="#F9EA38"/>
<circle cx="175" cy="337" r="30" fill="#F9EA38"/>
<circle cx="69" cy="563" r="13" fill="#F9EA38"/>
<circle cx="321" cy="562" r="13" fill="#E40035"/>
</svg>
