<svg width="374" height="615" viewBox="0 0 374 615" fill="none" xmlns="http://www.w3.org/2000/svg">
<path d="M92 468C116.853 468 137 488.147 137 513C137 537.853 116.853 558 92 558C67.1472 558 47 537.853 47 513C47 488.147 67.1472 468 92 468ZM291 468C315.853 468 336 488.147 336 513C336 537.853 315.853 558 291 558C266.147 558 246 537.853 246 513C246 488.147 266.147 468 291 468ZM92.5 489C79.5213 489 69 499.521 69 512.5C69 525.479 79.5213 536 92.5 536C105.479 536 116 525.479 116 512.5C116 499.521 105.479 489 92.5 489ZM290.5 488C277.521 488 267 498.521 267 511.5C267 524.479 277.521 535 290.5 535C303.479 535 314 524.479 314 511.5C314 498.521 303.479 488 290.5 488ZM263 370C281.778 370 297 385.222 297 404C297 422.778 281.778 438 263 438C244.222 438 229 422.778 229 404C229 385.222 244.222 370 263 370ZM263.286 384.286C252.556 384.286 243.858 392.984 243.857 403.714C243.857 414.444 252.556 423.143 263.286 423.143C274.016 423.142 282.714 414.444 282.714 403.714C282.714 392.984 274.016 384.286 263.286 384.286ZM174.5 278C207.361 278 234 304.639 234 337.5C234 370.361 207.361 397 174.5 397C141.639 397 115 370.361 115 337.5C115 304.639 141.639 278 174.5 278ZM175 295C151.804 295 133 313.804 133 337C133 360.196 151.804 379 175 379C198.196 379 217 360.196 217 337C217 313.804 198.196 295 175 295ZM49.5 289C66.897 289 81 303.103 81 320.5C81 337.897 66.897 352 49.5 352C32.103 352 18 337.897 18 320.5C18 303.103 32.103 289 49.5 289ZM49.7646 302.235C39.8236 302.235 31.7646 310.294 31.7646 320.235C31.7647 330.176 39.8236 338.235 49.7646 338.235C59.7058 338.235 67.7646 330.176 67.7646 320.235C67.7646 310.294 59.7058 302.235 49.7646 302.235ZM305.5 265C322.897 265 337 279.103 337 296.5C337 313.897 322.897 328 305.5 328C288.103 328 274 313.897 274 296.5C274 279.103 288.103 265 305.5 265ZM305.765 278.235C295.824 278.235 287.765 286.294 287.765 296.235C287.765 306.176 295.824 314.235 305.765 314.235C315.706 314.235 323.765 306.176 323.765 296.235C323.765 286.294 315.706 278.235 305.765 278.235ZM175 162C202.062 162 224 183.938 224 211C224 238.062 202.062 260 175 260C147.938 260 126 238.062 126 211C126 183.938 147.938 162 175 162ZM83.5 202C95.9264 202 106 212.074 106 224.5C106 236.926 95.9264 247 83.5 247C71.0736 247 61 236.926 61 224.5C61 212.074 71.0736 202 83.5 202ZM83.6895 211.454C76.5888 211.454 70.8322 217.21 70.832 224.311C70.832 231.411 76.5886 237.168 83.6895 237.168C90.7901 237.168 96.5459 231.411 96.5459 224.311C96.5457 217.21 90.79 211.454 83.6895 211.454ZM174.51 186.99C160.979 186.99 150.01 197.959 150.01 211.49C150.01 225.021 160.979 235.99 174.51 235.99C188.041 235.99 199.01 225.021 199.01 211.49C199.01 197.959 188.041 186.99 174.51 186.99ZM174.5 49C202.39 49 225 71.6096 225 99.5C225 127.39 202.39 150 174.5 150C146.61 150 124 127.39 124 99.5C124 71.6096 146.61 49 174.5 49ZM175 62C154.565 62 138 78.5655 138 99C138 119.435 154.565 136 175 136C195.435 136 212 119.435 212 99C212 78.5655 195.435 62 175 62Z" fill="#137AA3"/>
<path d="M289.203 434.738L296.704 469.238L299.465 481.941L274.059 487.465L271.298 474.762L263.797 440.262L261.035 427.559L286.441 422.035L289.203 434.738ZM128.937 398.955C135.865 404.1 143.694 408.101 152.144 410.679L119.613 475.343L113.771 486.956L90.5439 475.271L96.3877 463.657L128.937 398.955ZM230.461 358.63L244.461 370.63L254.331 379.091L237.41 398.831L227.54 390.37L213.54 378.37L203.67 369.909L220.591 350.169L230.461 358.63ZM166.457 382.229L160.614 393.842L160.093 394.876C151.474 392.64 143.607 388.538 136.951 383.024L137.388 382.157L143.229 370.544L166.457 382.229ZM88.042 240.976L83.7832 253.258L70.7832 290.759L66.5254 303.041L41.96 294.524L46.2178 282.241L59.2178 244.742L63.4756 232.459L88.042 240.976ZM303.386 273L285.001 291.385L234.818 241.203C239.324 232.297 241.9 222.251 241.995 211.61L303.386 273ZM188.001 290H162.001V243H188.001V290ZM148 208L100 228L90 204L138 184L148 208ZM214.388 189.227C217.963 195.678 220 203.101 220 211C220 215.65 219.293 220.136 217.983 224.355L218.165 224.55L198.615 205L214.388 189.227ZM188.001 172.5H162.001V138H188.001V172.5Z" fill="#137AA3"/>
<circle cx="175" cy="99" r="23" fill="#E40035"/>
<circle cx="50" cy="320" r="9" fill="#E40035"/>
<circle cx="306" cy="296" r="9" fill="#F9EA38"/>
<circle cx="175" cy="337" r="30" fill="#F9EA38"/>
<circle cx="92" cy="513" r="13" fill="#F9EA38"/>
<circle cx="291" cy="512" r="13" fill="#E40035"/>
</svg>
